<?xml version="1.0" encoding="UTF-8"?> <svg xmlns="http://www.w3.org/2000/svg" xmlns:xlink="http://www.w3.org/1999/xlink" width="520px" height="347px" viewBox="0 0 520 347"><title>illustration_home_your-employer-brand-large</title><g id="illustration_home_your-employer-brand-large" stroke="none" stroke-width="1" fill="none" fill-rule="evenodd"><g id="Group-257" transform="translate(4.374000, 2.187000)"><path d="M111.76145,14.5827195 C170.568591,-18.4515226 250.213906,21.6079323 279.55144,65.6762676 C308.88764,109.743269 338.854855,192.318202 319.222681,227.568334 C299.59184,262.817132 268.486663,290.38569 212.682514,285.153467 C156.879699,279.91991 119.273598,235.475367 86.8703714,186.904545 C54.4684785,138.333724 52.954309,47.6182957 111.76145,14.5827195" id="Fill-1" fill="#DFF7E7"></path><path d="M98.3210947,141.346721 C115.765394,123.129995 116.875341,95.820247 100.799797,80.3490369 C84.725587,64.8778267 57.5505805,67.1043896 40.1062808,85.3211159 C33.3598886,92.3663397 29.1615702,105.188087 27.3499031,113.744812 C18.9879522,115.747251 10.1670811,113.377943 2.75765616,115.026853 C4.28650042,99.0687076 11.3904233,82.9064491 23.9600312,69.7805341 C51.083009,41.4568933 93.3303387,37.9976497 118.322807,62.0509323 C143.316609,86.1028809 141.590322,128.563662 114.467344,156.885969 C105.906617,165.826906 95.8370563,172.283805 85.2792261,176.18596 L80.4245452,153.417387 C86.8934508,150.879985 93.0515181,146.848426 98.3210947,141.346721" id="Fill-3" fill="#F3F9F5"></path><path d="M20.1040352,164.617438 C6.6939632,151.711645 0.986811602,133.504257 2.75712253,115.027387 C5.19980476,114.48442 26.6703278,114.495093 26.6703278,114.495093 C26.6703278,114.495093 25.7551558,109.688439 27.2559846,109.32824 C24.3850659,122.893064 27.7696016,136.831427 37.627045,146.319334 C48.846574,157.117296 65.4717547,159.282492 80.4253457,153.41792 L82.3183911,162.298824 L85.2786925,176.185159 C62.391387,184.645831 37.208147,181.077194 20.1040352,164.617438" id="Fill-5" fill="#DFF7E7"></path><polyline id="Stroke-7" stroke="#65BF80" stroke-width="0.84046412" points="80.4245452 153.418454 82.3175906 162.298024 85.2792261 176.185693"></polyline><line x1="2.75725594" y1="115.02752" x2="27.1934167" y2="114.307122" id="Stroke-9" stroke="#65BF80" stroke-width="0.84046412"></line><path d="M77.3850001,46.05063 C92.5493741,46.05063 107.158775,51.3055319 118.323607,62.0501319 C143.316075,86.1034146 141.589788,128.564196 114.466811,156.887836 C105.906083,165.82744 95.8365227,172.284339 85.2786925,176.185159 C77.3289691,179.12545 69.1017593,180.611604 61.0333037,180.611604 C45.8715978,180.611604 31.2675332,175.360704 20.1040352,164.617438 C6.6939632,151.711645 0.986811602,133.505591 2.7584566,115.027387 C4.28596679,99.0679071 11.3912238,82.9069828 23.9594975,69.7810677 C38.9664513,54.1097471 58.6026281,46.05063 77.3850001,46.05063 M63.9429104,156.602345 C69.4339427,156.602345 75.0370368,155.532421 80.4253457,153.41792 C86.8942513,150.880519 93.0523185,146.848959 98.3205611,141.347255 C115.766195,123.129194 116.876141,95.8194466 100.800597,80.3482364 C93.6179642,73.4364196 84.2247771,70.0585543 74.468723,70.0585543 C62.3887189,70.0585543 49.7577438,75.2427504 40.1070812,85.3203154 C33.359355,92.3668733 29.0676517,100.774183 27.2559846,109.32824 C24.3850659,122.893064 27.7696016,136.831427 37.627045,146.319334 C44.8043418,153.227148 54.1935267,156.602345 63.9429104,156.602345 M77.3850001,45.2101659 C57.6460999,45.2101659 37.951224,53.9536609 23.3538297,69.1994132 C11.1364164,81.958459 3.52554687,98.2047638 1.92066062,114.947343 C0.0623010705,134.344721 6.47784385,152.668173 19.5210465,165.223106 C30.3963854,175.688885 45.1378593,181.452068 61.0333037,181.452068 C69.2765224,181.452068 77.5304137,179.945903 85.5708538,176.973595 C96.5329072,172.922024 106.734541,166.176966 115.073813,157.468157 C142.472943,128.856357 144.191225,85.7805696 118.905262,61.4444641 C108.028589,50.9760166 93.2831126,45.2101659 77.3850001,45.2101659 M63.9429104,155.761881 C54.0814648,155.761881 44.9430851,152.193244 38.2086995,145.713666 C28.9515876,136.803412 25.1654968,123.266603 28.0791058,109.503003 C29.9294609,100.76351 34.2985403,92.6030037 40.7140831,85.90197 C49.8431243,76.3687055 62.1472522,70.8990184 74.468723,70.8990184 C84.3355049,70.8990184 93.4792209,74.4689898 100.217609,80.9552383 C115.934288,96.0795902 114.811001,122.911741 97.7135592,140.7656 C92.6574338,146.045849 86.7381651,150.038721 80.1185096,152.636155 C74.830256,154.710634 69.3872502,155.761881 63.9429104,155.761881" id="Fill-11" fill="#65BF80"></path><polyline id="Stroke-13" stroke="#65BF80" stroke-width="0.84046412" points="415.885793 77.5361502 457.144577 50.9307916 500.102966 111.735035"></polyline><path d="M411.925206,76.3727077 C411.607697,76.0485287 369.676542,58.6015609 369.676542,58.6015609 L324.459573,6.96504623" id="Stroke-15" stroke="#65BF80" stroke-width="0.84046412"></path><path d="M450.140442,56.0333426 C452.068174,59.279135 456.454596,60.002201 459.937853,57.6448992 C463.42111,55.2902656 464.681806,50.7477572 462.752741,47.5019648 C460.825009,44.2548383 456.438587,43.5331064 452.953996,45.8904082 C449.472073,48.2463759 448.211377,52.7875503 450.140442,56.0333426" id="Fill-17" fill="#F3F9F5"></path><path d="M450.140442,56.0333426 C452.068174,59.279135 456.454596,60.002201 459.937853,57.6448992 C463.42111,55.2902656 464.681806,50.7477572 462.752741,47.5019648 C460.825009,44.2548383 456.438587,43.5331064 452.953996,45.8904082 C449.472073,48.2463759 448.211377,52.7875503 450.140442,56.0333426 Z" id="Stroke-19" stroke="#65BF80" stroke-width="0.84046412"></path><path d="M407.327734,82.4984905 C409.706381,84.9251639 413.840664,84.6917016 416.559498,81.9782032 C419.278333,79.2647048 419.553152,75.0984041 417.171837,72.6717307 C414.79319,70.2437232 410.660241,70.4771855 407.940072,73.1906839 C405.222571,75.9055164 404.947753,80.0718171 407.327734,82.4984905" id="Fill-21" fill="#F3F9F5"></path><path d="M407.327734,82.4984905 C409.706381,84.9251639 413.840664,84.6917016 416.559498,81.9782032 C419.278333,79.2647048 419.553152,75.0984041 417.171837,72.6717307 C414.79319,70.2437232 410.660241,70.4771855 407.940072,73.1906839 C405.222571,75.9055164 404.947753,80.0718171 407.327734,82.4984905 Z" id="Stroke-23" stroke="#65BF80" stroke-width="0.84046412"></path><path d="M318.154758,10.9198968 C319.925068,13.8508487 323.913938,14.4778616 327.065011,12.3206704 C330.213417,10.1621451 331.330033,6.03586645 329.558388,3.10491459 C327.788077,0.172628662 323.797874,-0.454384253 320.649469,1.70414106 C317.501063,3.86266637 316.383113,7.98894498 318.154758,10.9198968" id="Fill-25" fill="#F3F9F5"></path><path d="M318.154758,10.9198968 C319.925068,13.8508487 323.913938,14.4778616 327.065011,12.3206704 C330.213417,10.1621451 331.330033,6.03586645 329.558388,3.10491459 C327.788077,0.172628662 323.797874,-0.454384253 320.649469,1.70414106 C317.501063,3.86266637 316.383113,7.98894498 318.154758,10.9198968 Z" id="Stroke-27" stroke="#65BF80" stroke-width="0.84046412"></path><path d="M363.130127,63.4188877 C365.510108,65.8455611 369.643057,65.6120989 372.361892,62.8999345 C375.080726,60.185102 375.355545,56.0188013 372.975564,53.5921279 C370.596917,51.1641204 366.462634,51.3989168 363.743799,54.1110811 C361.024965,56.8259136 360.750146,60.9922144 363.130127,63.4188877" id="Fill-29" fill="#F3F9F5"></path><path d="M363.130127,63.4188877 C365.510108,65.8455611 369.643057,65.6120989 372.361892,62.8999345 C375.080726,60.185102 375.355545,56.0188013 372.975564,53.5921279 C370.596917,51.1641204 366.462634,51.3989168 363.743799,54.1110811 C361.024965,56.8259136 360.750146,60.9922144 363.130127,63.4188877 Z" id="Stroke-31" stroke="#65BF80" stroke-width="0.84046412"></path><path d="M495.720279,118.810142 C498.098926,121.236816 502.233209,121.004688 504.952044,118.291189 C507.670879,115.577691 507.945697,111.410056 505.565716,108.983383 C503.187069,106.555375 499.052786,106.788837 496.332617,109.502336 C493.615117,112.217168 493.340298,116.383469 495.720279,118.810142" id="Fill-33" fill="#F3F9F5"></path><path d="M495.720279,118.810142 C498.098926,121.236816 502.233209,121.004688 504.952044,118.291189 C507.670879,115.577691 507.945697,111.410056 505.565716,108.983383 C503.187069,106.555375 499.052786,106.788837 496.332617,109.502336 C493.615117,112.217168 493.340298,116.383469 495.720279,118.810142 Z" id="Stroke-35" stroke="#65BF80" stroke-width="0.84046412"></path><path d="M438.425573,340.69307 C438.324184,340.69307 438.225463,340.65705 438.146753,340.587679 C438.05737,340.5063 438.005341,340.392905 438.005341,340.272838 L438.005341,148.141406 C438.005341,147.929289 438.162762,147.750524 438.373545,147.725177 L463.579464,144.630134 C463.595473,144.627466 463.61415,144.627466 463.631492,144.627466 C463.732882,144.627466 463.831603,144.66482 463.908979,144.732857 C463.999696,144.812902 464.05039,144.926298 464.05039,145.047698 L464.05039,337.177796 C464.05039,337.389913 463.89297,337.568678 463.682187,337.59536 L438.476268,340.689068 C438.458925,340.69307 438.442916,340.69307 438.425573,340.69307" id="Fill-37" fill="#F3F9F5"></path><path d="M463.630959,145.047298 L463.630959,337.17873 L438.42504,340.272438 L438.42504,148.14234 L463.630959,145.047298 M463.630959,144.206834 C463.597607,144.206834 463.562921,144.206834 463.528235,144.213504 L438.32365,147.307212 C437.902084,147.359241 437.58591,147.716772 437.58591,148.14234 L437.58591,340.272438 C437.58591,340.513905 437.688633,340.742031 437.868732,340.903453 C438.023485,341.038194 438.222261,341.112902 438.42504,341.112902 C438.459726,341.112902 438.494411,341.112902 438.529097,341.106232 L463.732348,338.012523 C464.155248,337.959161 464.471423,337.60163 464.471423,337.17873 L464.471423,145.047298 C464.471423,144.805831 464.3687,144.576371 464.187266,144.417617 C464.033848,144.280208 463.833738,144.206834 463.630959,144.206834" id="Fill-39" fill="#65BF80"></path><path d="M393.75117,401.196615 C393.649781,401.196615 393.551059,401.159261 393.472349,401.089889 C393.382967,401.009845 393.330938,400.896449 393.330938,400.776383 L393.330938,187.966865 C393.330938,187.754748 393.489692,187.574649 393.699141,187.550636 L418.90506,184.454259 C418.921069,184.450257 418.938412,184.450257 418.955755,184.450257 C419.057144,184.450257 419.1572,184.488945 419.234576,184.556982 C419.323958,184.637027 419.375987,184.751757 419.375987,184.871823 L419.375987,397.680006 C419.375987,397.892123 419.218567,398.072223 419.007784,398.09757 L393.801865,401.192613 C393.784522,401.196615 393.768513,401.196615 393.75117,401.196615" id="Fill-41" fill="#F3F9F5"></path><path d="M418.955221,184.871423 L418.955221,397.68094 L393.750636,400.775983 L393.750636,187.966465 L418.955221,184.871423 M418.955221,184.030959 C418.923204,184.030959 418.887184,184.033627 418.853832,184.037629 L393.647913,187.131337 C393.227681,187.183366 392.911506,187.542231 392.911506,187.966465 L392.911506,400.775983 C392.911506,401.017449 393.01423,401.244241 393.192995,401.405664 C393.349081,401.541739 393.546524,401.616447 393.750636,401.616447 C393.785322,401.616447 393.818674,401.613778 393.854694,401.609776 L419.057945,398.514734 C419.479511,398.462705 419.79702,398.105174 419.79702,397.68094 L419.79702,184.871423 C419.79702,184.63129 419.692962,184.40183 419.512863,184.241742 C419.358111,184.107001 419.159334,184.030959 418.955221,184.030959" id="Fill-43" fill="#65BF80"></path><path d="M341.401995,263.572349 C341.300606,263.572349 341.201885,263.53633 341.123174,263.466958 C341.033792,263.38558 340.981763,263.272184 340.981763,263.152117 L340.981763,111.270913 C340.981763,111.058795 341.139183,110.878696 341.349966,110.853349 L366.555886,107.758306 C366.571894,107.755638 366.589237,107.755638 366.60658,107.755638 C366.70797,107.755638 366.808025,107.792992 366.885401,107.86103 C366.974784,107.941074 367.026812,108.055804 367.026812,108.17587 L367.026812,260.057075 C367.026812,260.269192 366.869392,260.447957 366.658609,260.473305 L341.45269,263.568347 C341.435347,263.572349 341.419338,263.572349 341.401995,263.572349" id="Fill-45" fill="#F3F9F5"></path><path d="M366.605913,108.176003 L366.605913,260.057208 L341.401328,263.152251 L341.401328,111.271046 L366.605913,108.176003 M366.605913,107.335539 C366.573895,107.335539 366.537876,107.335539 366.504524,107.34221 L341.298605,110.435918 C340.878373,110.487947 340.562198,110.845478 340.562198,111.271046 L340.562198,263.152251 C340.562198,263.392383 340.664921,263.621843 340.843687,263.781932 C340.999773,263.918007 341.197215,263.992715 341.401328,263.992715 C341.436014,263.992715 341.469366,263.990047 341.505386,263.986045 L366.708637,260.891002 C367.130203,260.838973 367.447711,260.481443 367.447711,260.057208 L367.447711,108.176003 C367.447711,107.934537 367.343654,107.706411 367.163554,107.546322 C367.008802,107.408913 366.810026,107.335539 366.605913,107.335539" id="Fill-47" fill="#65BF80"></path><path d="M292.404805,334.566087 C292.303415,334.566087 292.204694,334.530067 292.127318,334.460695 C292.037935,334.380651 291.985907,334.265921 291.985907,334.147189 L291.985907,20.555351 C291.985907,20.3432339 292.143327,20.1644685 292.35411,20.1391212 L317.558695,17.0440787 C317.574704,17.0400765 317.593381,17.0400765 317.610724,17.0400765 C317.712113,17.0400765 317.812168,17.0774305 317.88821,17.145468 C317.978927,17.2255122 318.029622,17.3402423 318.029622,17.4603086 L318.029622,331.050812 C318.029622,331.262929 317.872202,331.441695 317.661418,331.468376 L292.456833,334.566087 C292.43949,334.566087 292.423482,334.566087 292.404805,334.566087" id="Fill-49" fill="#F3F9F5"></path><path d="M317.61019,17.4605754 L317.61019,331.051079 L292.404271,334.144788 L292.404271,20.5556179 L317.61019,17.4605754 M317.61019,16.6201113 C317.576838,16.6201113 317.542153,16.6201113 317.507467,16.6267816 L292.302882,19.7218241 C291.88265,19.7725187 291.565141,20.1300495 291.565141,20.5556179 L291.565141,334.144788 C291.565141,334.386254 291.669198,334.617048 291.847964,334.775803 C292.002716,334.911878 292.201492,334.985252 292.404271,334.985252 C292.440291,334.985252 292.473643,334.985252 292.508328,334.979915 L317.712914,331.886207 C318.13448,331.834178 318.450654,331.475313 318.450654,331.051079 L318.450654,17.4605754 C318.450654,17.2204428 318.347931,16.9909827 318.167831,16.8308943 C318.013079,16.6934851 317.814303,16.6201113 317.61019,16.6201113" id="Fill-51" fill="#65BF80"></path><path d="M483.191227,342.920967 C483.089838,342.920967 482.991117,342.883613 482.91374,342.815576 C482.824358,342.734197 482.772329,342.620801 482.772329,342.500735 L482.772329,211.676492 C482.772329,211.464375 482.929749,211.284275 483.140532,211.260262 L508.345118,208.165219 C508.361126,208.161217 508.379803,208.161217 508.397146,208.161217 C508.498536,208.161217 508.597257,208.198571 508.674633,208.266609 C508.76535,208.347987 508.816044,208.461383 508.816044,208.582783 L508.816044,339.404359 C508.816044,339.61781 508.658624,339.796575 508.447841,339.821923 L483.243256,342.916965 C483.225913,342.920967 483.209904,342.920967 483.191227,342.920967" id="Fill-53" fill="#F3F9F5"></path><path d="M508.396479,208.582383 L508.396479,339.405292 L483.19056,342.500335 L483.19056,211.676091 L508.396479,208.582383 M508.396479,207.741919 C508.363127,207.741919 508.328442,207.741919 508.293756,207.747255 L483.089171,210.840964 C482.667605,210.892992 482.35143,211.251857 482.35143,211.676091 L482.35143,342.500335 C482.35143,342.740468 482.455487,342.968594 482.634253,343.130016 C482.789005,343.266091 482.987781,343.342133 483.19056,343.342133 C483.225246,343.342133 483.259932,343.339465 483.294617,343.334129 L508.499203,340.239086 C508.920769,340.188392 509.236943,339.829527 509.236943,339.405292 L509.236943,208.582383 C509.236943,208.340916 509.13422,208.110122 508.95412,207.951368 C508.799368,207.815293 508.600592,207.741919 508.396479,207.741919" id="Fill-55" fill="#65BF80"></path><path d="M191.937858,83.7785307 C191.739082,83.7785307 191.560316,83.6344511 191.524297,83.4316725 L190.059488,75.116414 C188.748097,74.9403168 187.47406,74.6348147 186.26139,74.2065782 L179.649739,80.6514706 C179.569695,80.7301807 179.462969,80.7702028 179.356244,80.7702028 C179.264193,80.7702028 179.172142,80.7408532 179.0961,80.679486 L172.165606,75.2044626 C171.994845,75.0697215 171.954823,74.8282549 172.073556,74.6454873 L177.076318,66.9425669 C176.395942,65.876645 175.820958,64.7226744 175.367374,63.5073366 C175.367374,63.5073366 166.754618,63.8755399 166.747948,63.8755399 C166.525158,63.8755399 166.338388,63.6994427 166.32905,63.4739848 L165.900448,54.1528375 C165.892809,53.9593974 166.016878,53.7846342 166.202313,53.7299373 L174.775047,51.1992065 C175.115235,49.8211121 175.58216,48.4670311 176.166482,47.1649787 L170.570059,41.2817299 C170.424645,41.1283118 170.415306,40.8895133 170.548713,40.7254227 L176.876208,33.0185001 C176.957586,32.9171108 177.078986,32.865082 177.201721,32.865082 C177.27376,32.865082 177.3458,32.883759 177.412504,32.922447 L184.475071,37.0380531 C185.650386,36.197589 186.903078,35.4585142 188.20513,34.8381716 L188.898847,26.0866722 C188.913522,25.8945661 189.057601,25.7371459 189.247039,25.7051282 L198.621549,24.1269233 C198.644228,24.1229211 198.668242,24.121587 198.692255,24.121587 C198.892365,24.121587 199.069797,24.2656666 199.104482,24.4684453 L200.570625,32.7837038 C201.882016,32.9611351 203.157387,33.265303 204.368723,33.6935395 L210.980374,27.2486472 C211.060418,27.168603 211.167144,27.129915 211.273869,27.129915 C211.36592,27.129915 211.456637,27.1592645 211.534013,27.2192977 L218.464507,32.6956551 C218.635268,32.8303962 218.67529,33.073197 218.556558,33.2546305 L213.553795,40.9562168 C214.234171,42.0234728 214.807821,43.1761093 215.262739,44.3927812 C215.262739,44.3927812 223.875495,44.0245778 223.882165,44.0245778 C224.104955,44.0245778 224.291725,44.2006751 224.302397,44.4247989 L224.729665,53.7472802 C224.737304,53.9407204 224.613236,54.1141495 224.4278,54.1688464 L215.855066,56.7009113 C215.516212,58.0790056 215.047953,59.4330867 214.462297,60.7351391 L220.060055,66.6183879 C220.205468,66.7718059 220.214807,67.0106045 220.080066,67.1746951 L213.753905,74.8816177 C213.672527,74.9816729 213.551127,75.0350357 213.428392,75.0350357 C213.356353,75.0350357 213.282979,75.0163587 213.217609,74.9776707 L206.155043,70.8607306 C204.979727,71.7025288 203.727035,72.4416036 202.424983,73.0619461 L201.7326,81.8134456 C201.716592,82.0055516 201.573846,82.1629719 201.383074,82.1949896 L192.008564,83.7731944 C191.984551,83.7758626 191.960537,83.7785307 191.937858,83.7785307 M196.46836,44.9210729 C195.970752,44.9210729 195.463805,44.9650972 194.958193,45.0504777 C189.995452,45.8842715 186.142658,50.5761958 186.368116,55.5082527 C186.565558,59.8359759 189.843368,62.9777108 194.161753,62.9790449 C194.659361,62.9790449 195.167642,62.9350205 195.67192,62.8496401 C200.634661,62.0145122 204.487455,57.3225879 204.261997,52.3918651 C204.064555,48.0628078 200.786745,44.9210729 196.46836,44.9210729" id="Fill-57" fill="#F3F9F5"></path><path d="M198.691588,24.5412855 L200.211094,33.160712 C201.697248,33.3381433 203.126037,33.6796652 204.473447,34.1772733 L211.274536,27.5496134 L218.203696,33.0246368 L213.052852,40.9570172 C213.835951,42.1416714 214.480307,43.4383875 214.973913,44.8258203 L223.881498,44.4442763 L224.308401,53.7667577 L215.503538,56.3668601 C215.142005,57.8970385 214.62572,59.3898628 213.962687,60.8186518 L219.756554,66.9073475 L213.429059,74.61427 L206.130362,70.3599207 C204.849655,71.3004401 203.474229,72.1142228 202.025429,72.78526 L201.313035,81.7808942 L191.938525,83.357765 L190.41902,74.7383385 C188.932866,74.5622413 187.504077,74.2193853 186.156666,73.7217772 L179.356911,80.3507712 L172.426417,74.8744137 L177.577261,66.9433674 C176.794162,65.7587132 176.149806,64.4619971 175.654867,63.0745643 L166.748615,63.4547742 L166.321713,54.1336269 L175.126575,51.5335244 C175.486774,50.002012 176.004393,48.5105217 176.667426,47.0817327 L170.87356,40.991703 L177.201054,33.2847805 L184.499751,37.5391298 C185.780458,36.5999445 187.157218,35.7861618 188.604684,35.1151245 L189.317078,26.1208244 L198.691588,24.5412855 M194.161086,63.3987433 C194.677371,63.3987433 195.205663,63.354719 195.741959,63.2640022 C200.915483,62.3941885 204.917693,57.5168285 204.681562,52.3726545 C204.470779,47.7621084 200.927489,44.5003072 196.469027,44.5003072 C195.952742,44.5003072 195.425784,44.5443315 194.888154,44.6363824 C189.714631,45.506196 185.71242,50.382222 185.948551,55.5277301 C186.159334,60.1369421 189.703958,63.3987433 194.161086,63.3987433 M198.692922,23.7008214 C198.646229,23.7008214 198.599537,23.7048236 198.55151,23.712828 L189.177,25.2910328 C188.79679,25.3550682 188.509965,25.6685747 188.479282,26.0541209 L187.805576,34.5641536 C186.640933,35.1324675 185.516312,35.7955003 184.453058,36.5399113 L177.623954,32.5590464 C177.491881,32.4816703 177.346467,32.4443163 177.201054,32.4443163 C176.956919,32.4443163 176.716786,32.5510419 176.551362,32.7524865 L170.225201,40.4594091 C169.955719,40.7862563 169.973062,41.2638533 170.265224,41.5720235 L175.669541,47.2511596 C175.159927,48.4238072 174.742363,49.6338087 174.427522,50.8624872 L166.084248,53.3278486 C165.712043,53.4372424 165.463906,53.7854346 165.481248,54.1709809 L165.909485,63.4934623 C165.929496,63.9443779 166.301702,64.2952383 166.747281,64.2952383 C166.759288,64.2952383 166.772628,64.2952383 166.784635,64.2939043 L175.08255,63.9403757 C175.494778,64.9916229 175.996388,65.9975117 176.578043,66.9393651 L171.720694,74.4168277 C171.484564,74.7810288 171.564608,75.2639621 171.904796,75.5334443 L178.836624,81.0098018 C178.988708,81.1312021 179.172809,81.1899012 179.356911,81.1899012 C179.569028,81.1899012 179.781145,81.1111911 179.942568,80.9524368 L186.370117,74.688978 C187.437373,75.0478428 188.55399,75.3173249 189.698622,75.48942 L191.111402,83.5031787 C191.183442,83.9114041 191.53697,84.1982291 191.937191,84.1982291 C191.983884,84.1982291 192.030576,84.195561 192.077269,84.1862225 L201.451779,82.6080177 C201.831989,82.5453164 202.120148,82.2304758 202.150831,81.8462637 L202.825871,73.3362309 C203.98918,72.766583 205.113801,72.1035502 206.177055,71.3604732 L213.006159,75.3413382 C213.138232,75.4187143 213.283646,75.4560682 213.429059,75.4560682 C213.673194,75.4560682 213.913327,75.3480086 214.078752,75.147898 L220.404912,67.4409755 C220.674394,67.1127942 220.657051,66.6351972 220.36489,66.3283611 L214.960572,60.6478909 C215.470187,59.4765774 215.887751,58.2665759 216.203925,57.0365633 L224.545865,54.572536 C224.918071,54.4631422 225.166208,54.1136159 225.148865,53.7267356 L224.721962,44.4055882 C224.700617,43.9560066 224.328412,43.6038122 223.882832,43.6038122 C223.870826,43.6038122 223.857485,43.6038122 223.845478,43.6051462 L215.547563,43.9600089 C215.135335,42.9074276 214.633725,41.9028729 214.05207,40.9610194 L218.908085,33.4835569 C219.14555,33.1193558 219.065505,32.6337543 218.725317,32.3669403 L211.79349,26.8892487 C211.641406,26.7691824 211.457304,26.7091493 211.274536,26.7091493 C211.061085,26.7091493 210.848968,26.7891935 210.687546,26.9479478 L204.259996,33.2127407 C203.19274,32.8512077 202.076123,32.5817256 200.931491,32.4096305 L199.518711,24.3958718 C199.448006,23.9876464 199.093143,23.7008214 198.692922,23.7008214 M194.161086,62.5582792 C190.076164,62.5582792 186.975785,59.5846371 186.787681,55.487708 C186.571562,50.7624319 190.26827,46.2652819 195.026897,45.4648399 C195.509831,45.3834616 195.995432,45.3407713 196.469027,45.3407713 C200.55395,45.3407713 203.655662,48.3144134 203.842432,52.4113425 C204.058552,57.1379526 200.361843,61.6351027 195.603216,62.4355447 C195.120282,62.516923 194.634681,62.5582792 194.161086,62.5582792" id="Fill-59" fill="#65BF80"></path><path d="M225.5743,16.7876705 C209.582802,4.12734586 184.894502,5.88698423 167.375494,21.9385149 C148.196904,39.5148875 144.779016,67.6557608 159.519156,85.2481423" id="Stroke-61" stroke="#65BF80" stroke-width="0.84046412" stroke-linejoin="round"></path><polygon id="Fill-63" fill="#65BF80" points="155.118059 85.2082536 155.239459 84.3744598 159.339057 84.9774594 159.640556 80.8445105 160.479686 80.9058777 160.111483 85.940658"></polygon><path d="M163.880765,89.6652481 C179.820233,103.342134 205.279626,101.894668 223.221534,85.4549231 C242.400124,67.8798845 245.818012,39.7390113 231.077872,22.1452957" id="Stroke-65" stroke="#65BF80" stroke-width="0.84046412" stroke-linejoin="round"></path><polygon id="Fill-67" fill="#65BF80" points="235.478836 22.1858514 235.357435 23.0183111 231.257838 22.4166455 230.956338 26.5495945 230.117208 26.4882273 230.485412 21.453447"></polygon><path d="M201.512879,134.553903 C196.036522,135.649175 43.4295826,151.712712 43.4295826,151.712712 C43.4295826,151.712712 38.3187603,151.347177 37.589024,161.205954 C36.8579536,171.062064 38.3187603,262.699334 38.3187603,262.699334 C38.3187603,262.699334 41.2390396,270.73177 51.8262194,276.573662 C62.4147332,282.412887 84.3201631,298.477758 84.3201631,298.477758 C84.3201631,298.477758 96.0026144,299.57303 117.542509,296.651416 C139.083738,293.732471 211.370323,285.700035 211.370323,285.700035 C211.370323,285.700035 223.416975,258.319582 225.243317,257.588512 C227.068325,256.857441 215.751409,207.937093 215.751409,207.937093 L216.837342,143.434807 C216.837342,143.434807 212.465594,136.378911 205.52843,134.553903" id="Fill-69" fill="#DFF7E7"></path><path d="M208.484863,147.122043 C207.102766,146.892583 53.0617016,163.469738 53.0617016,163.469738 L53.2924958,251.427643 L208.714323,236.001791 L209.175911,147.813092" id="Fill-71" fill="#FFFFFF"></path><polyline id="Fill-73" fill="#A4EBBC" points="138.717135 286.65683 124.441252 275.3746 188.4526 268.466786 202.037435 279.981144 139.408184 286.887625"></polyline><path d="M57.7582952,260.294539 L83.2270262,279.397088 C83.2270262,279.397088 207.488979,266.275175 208.066632,266.083069 C208.646952,265.889629 213.469615,242.73551 213.469615,242.73551" id="Fill-75" fill="#A4EBBC"></path><line x1="18.8488087" y1="231.15218" x2="38.4102775" y2="229.096378" id="Stroke-77" stroke="#65BF80" stroke-width="1.68092824" stroke-linecap="round"></line><path d="M12.0566579,231.866041 L14.1431434,231.647253 L12.0566579,231.866041 Z" id="Fill-79" fill="#FFFFFF"></path><line x1="12.0559909" y1="231.866041" x2="14.1424764" y2="231.647253" id="Stroke-81" stroke="#65BF80" stroke-width="1.68092824" stroke-linecap="round"></line><path d="M7.97306954,232.294677 L8.25589239,232.266662 L7.97306954,232.294677 Z" id="Fill-83" fill="#FFFFFF"></path><line x1="7.97373658" y1="232.296011" x2="8.25522535" y2="232.266662" id="Stroke-85" stroke="#65BF80" stroke-width="1.68092824" stroke-linecap="round"></line><path d="M46.115866,260.968111 L216.69006,243.040878 L216.69006,145.480337 C216.69006,141.359395 213.349549,138.371078 209.231275,138.80465 L51.9884423,155.33111 C47.868834,155.764683 44.5296568,159.45472 44.5296568,163.575663 L44.5296568,259.539322 C44.5296568,260.390459 45.2673975,261.05616 46.115866,260.968111 Z" id="Stroke-87" stroke="#00AF41" stroke-width="0.84046412"></path><polygon id="Stroke-89" stroke="#00AF41" stroke-width="1.26069618" stroke-linejoin="round" points="53.0623687 163.422111 208.781693 147.054406 208.781693 235.28713 53.0623687 251.653501"></polygon><path d="M217.315205,242.975109 L46.5542414,260.922353 C45.8351777,260.998395 45.5843725,261.916235 46.1660271,262.34714 L79.3336762,286.886024 C84.092304,290.407969 90.0009001,292.012855 95.8868171,291.383174 L255.400237,274.31775 C256.874384,274.16033 257.381331,272.271287 256.18467,271.397471 L217.315205,242.975109 Z" id="Stroke-91" stroke="#00AF41" stroke-width="0.84046412"></path><path d="M38.6065192,159.668705 L38.6065192,257.09584 C38.6065192,262.195989 41.0345267,266.987969 45.1461305,270.005635 L79.3330091,295.099493 C84.092971,298.620104 90.0002331,300.223656 95.8874842,299.595309 L255.39957,282.531219 C256.621578,282.399146 257.301954,275.708785 256.817686,272.925915 C256.896396,272.376278 256.718965,271.786619 256.184003,271.395736 L217.315872,242.973374 L217.315872,145.060638 C217.315872,142.838078 216.346004,140.945032 214.809155,139.735031 C213.673861,138.843872 209.025961,136.119701 207.813292,135.500693 C206.677998,134.920372 205.339926,134.656226 203.907135,134.806976 L46.0933202,151.393469 C41.9590372,151.82971 38.6065192,155.533088 38.6065192,159.668705 Z" id="Stroke-93" stroke="#00AF41" stroke-width="1.68092824"></path><line x1="56.5636355" y1="259.815075" x2="83.586558" y2="279.807448" id="Stroke-95" stroke="#00AF41" stroke-width="0.84046412"></line><line x1="207.103166" y1="244.489011" x2="240.270815" y2="269.02923" id="Stroke-97" stroke="#65BF80" stroke-width="0.84046412"></line><line x1="64.4651989" y1="265.850941" x2="214.470701" y2="249.803413" id="Stroke-99" stroke="#00AF41" stroke-width="0.84046412"></line><line x1="71.0553714" y1="270.406924" x2="220.505901" y2="254.419428" id="Stroke-101" stroke="#00AF41" stroke-width="0.84046412"></line><line x1="77.3465789" y1="274.994123" x2="226.540967" y2="259.03331" id="Stroke-103" stroke="#00AF41" stroke-width="0.84046412"></line><line x1="83.0757426" y1="279.642424" x2="232.575633" y2="263.649592" id="Stroke-105" stroke="#00AF41" stroke-width="0.84046412"></line><line x1="39.0096752" y1="257.466178" x2="50.0250914" y2="265.197113" id="Stroke-107" stroke="#00AF41" stroke-width="0.84046412"></line><line x1="123.389605" y1="275.139937" x2="139.138301" y2="286.790371" id="Stroke-109" stroke="#00AF41" stroke-width="0.84046412"></line><line x1="187.464054" y1="268.442239" x2="203.211417" y2="280.094006" id="Stroke-111" stroke="#00AF41" stroke-width="0.84046412"></line><line x1="49.8139082" y1="315.072255" x2="375.448396" y2="280.846689" id="Stroke-113" stroke="#65BF80" stroke-width="0.84046412" stroke-linecap="round"></line><line x1="11.5896" y1="319.090074" x2="28.0373494" y2="317.359785" id="Stroke-115" stroke="#65BF80" stroke-width="0.84046412" stroke-linecap="round"></line><line x1="0.419965246" y1="320.263922" x2="3.59505192" y2="319.930405" id="Stroke-117" stroke="#65BF80" stroke-width="0.84046412" stroke-linecap="round"></line><line x1="24.8326464" y1="327.211759" x2="384.057684" y2="289.456243" id="Stroke-119" stroke="#65BF80" stroke-width="1.68092824" stroke-linecap="round"></line><line x1="15.1222174" y1="328.231789" x2="16.066739" y2="328.133068" id="Stroke-121" stroke="#65BF80" stroke-width="1.68092824" stroke-linecap="round"></line><line x1="479.97852" y1="318.541638" x2="509.617553" y2="315.426584" id="Stroke-123" stroke="#65BF80" stroke-width="0.84046412" stroke-linecap="round"></line><line x1="474.410245" y1="319.126494" x2="476.236587" y2="318.933054" id="Stroke-125" stroke="#65BF80" stroke-width="0.84046412" stroke-linecap="round"></line><line x1="402.322303" y1="326.703612" x2="471.400449" y2="319.443603" id="Stroke-127" stroke="#65BF80" stroke-width="0.84046412" stroke-linecap="round"></line><path d="M358.458214,232.595644 C357.461664,219.964669 357.461664,207.665877 348.819558,197.362854 C340.177452,187.058497 329.873095,186.39413 315.579869,184.067512 C301.287977,181.740894 275.029476,184.399696 258.410966,188.055047 C258.410966,188.055047 247.442242,188.055047 230.158031,197.030671 C212.873819,206.003626 208.220583,219.300302 205.893965,227.27804 C203.567347,235.254445 193.927357,290.430248 193.927357,290.430248 L178.305397,273.479554 C178.305397,273.479554 168.333223,276.139689 165.010055,281.455958 C161.685552,286.774896 163.681321,295.749185 163.681321,295.749185 L176.643146,315.692198 C176.643146,315.692198 182.294266,324.334303 186.615319,328.655356 C190.936372,332.976409 192.26644,332.976409 197.584043,334.305143 C202.901646,335.635211 211.877269,333.972959 216.529171,331.314158 C221.183742,328.655356 227.36849,315.893642 227.762041,316.810148 C230.061978,322.159769 231.179928,328.204441 231.712222,332.768294 C231.721561,332.844336 255.189187,332.768294 255.189187,332.768294 L341.691622,325.245473 C352.67502,303.641543 361.11835,265.169632 361.11835,265.169632 C361.11835,265.169632 359.456098,245.225285 358.458214,232.595644" id="Fill-129" fill="#A4EBBC"></path><path d="M338.735056,190.305357 C338.735056,190.305357 336.712606,187.609201 330.981441,186.935496 C325.254278,186.261791 315.815733,185.249231 305.03111,179.184549 C294.246488,173.117198 295.595233,162.668762 293.910303,156.602746 C292.225372,150.536729 294.246488,148.851799 302.334955,130.989935 C302.334955,130.989935 294.920194,122.226429 296.942644,115.486707 C298.965094,108.745651 229.874941,91.2199733 230.886166,91.8936787 C231.897391,92.5687181 225.15767,110.768102 226.8426,115.486707 C228.52753,120.203979 229.201236,128.967485 229.201236,128.967485 C229.201236,128.967485 228.86505,141.099518 229.201236,145.480604 C229.538756,149.863024 235.967639,163.69066 238.663795,167.39804 C241.35995,171.104087 253.466636,171.433602 253.466636,171.433602 L258.185241,171.096082 L258.119872,177.74909 C258.067843,183.01333 254.73,187.686577 249.765925,189.443548 L227.005357,197.493326 C227.005357,197.493326 229.322636,201.612934 234.649578,205.094857 C241.47468,209.555987 252.93701,212.644359 263.772327,214.251914 C272.840001,215.596656 292.900412,217.941952 313.120911,211.538415 C333.342745,205.134879 339.408761,189.969171 339.408761,189.969171" id="Fill-131" fill="#A2A9AF"></path><path d="M179.159335,275.28335 C179.48218,275.364728 168.490777,262.108074 168.976379,261.946652 C169.460646,261.785229 168.976379,257.178685 166.066772,254.753346 C163.155831,252.328007 159.033555,250.469647 159.033555,250.469647 C159.033555,250.469647 156.528171,247.640085 153.618564,247.074439 C150.708958,246.510127 145.213923,246.10457 145.213923,246.10457 C145.213923,246.10457 139.070531,245.861769 136.322346,247.31724 C133.574162,248.77271 131.795847,252.006496 131.795847,252.006496 C131.795847,252.006496 129.533264,255.724549 128.644773,257.178685 C127.754949,258.632822 123.956851,261.300962 123.875473,263.320744 C123.795429,265.34186 125.329609,265.34186 125.573744,265.180438 C125.815211,265.017681 132.038647,263.967768 132.038647,263.967768 L136.96937,266.635908 C136.96937,266.635908 142.707206,271.482584 145.779569,272.777966 C148.850598,274.07068 151.194559,275.121927 151.194559,275.121927 C151.194559,275.121927 164.691346,298.48016 164.531257,298.074602 C164.368501,297.671713 163.317253,288.53867 165.258325,284.335015 C167.196729,280.132694 172.20883,274.879127 179.320758,276.010418" id="Fill-133" fill="#A2A9AF"></path><path d="M226.98788,119.6993 L220.549658,120.120866 L220.835149,125.225018 C220.835149,129.79821 224.715959,133.409538 229.277144,133.078688" id="Stroke-135" stroke="#65BF80" stroke-width="1.68092824" stroke-linecap="round" stroke-linejoin="round"></path><path d="M271.997802,74.7957036 C270.998584,88.3925453 282.026007,100.283112 296.627403,101.358372 C311.230134,102.430964 323.878452,92.2800254 324.87767,78.6845177 C325.875554,65.0876759 314.849466,53.1957757 300.248069,52.1218493 C285.644005,51.049257 272.997021,61.2001959 271.997802,74.7957036" id="Fill-137" fill="#505863"></path><path d="M287.962218,82.2327438 C293.986878,86.0828699 305.366496,96.7927841 305.199737,107.167847 C305.031644,117.542909 301.181518,136.286593 299.340501,140.303478 C297.500819,144.320363 292.313954,153.690871 292.313954,153.690871 C292.313954,153.690871 288.980113,156.306982 278.603717,155.135669 C268.228654,153.965689 263.994316,148.586719 263.994316,148.586719 C263.994316,148.586719 257.776215,135.30872 256.27005,131.961538 C254.763885,128.614357 248.377692,120.543233 248.545785,121.550456 C248.83261,123.27941 245.622837,116.706447 245.121227,116.539689 C244.618283,116.37293 242.107563,114.698672 240.602732,115.200282 C239.096567,115.701893 238.741704,119.525337 237.402298,120.193707 C236.064226,120.864744 236.084237,116.204837 235.749385,112.522804 C235.414534,108.840771 233.071907,97.4624872 233.071907,97.4624872 L229.557966,93.9472127 C229.557966,93.9472127 230.226335,83.0692057 241.774045,78.0491001 C253.320422,73.0289946 263.530059,72.694143 266.541056,72.5273843 C269.553386,72.3592915 278.423617,73.1970874 278.423617,73.1970874" id="Fill-139" fill="#505863"></path><path d="M98.4585039,232.220503 C98.4585039,238.190466 93.6198319,243.548092 87.6485345,244.191113 C81.6799051,244.831467 76.8398991,240.513082 76.8398991,234.543119 C76.8398991,228.573156 81.6799051,223.214196 87.6485345,222.572509 C93.6198319,221.930821 98.4585039,226.249206 98.4585039,232.220503" id="Fill-141" fill="#DFF7E7"></path><path d="M86.7756524,220.809268 L87.7588621,232.823903 L79.1327652,244.670445 C79.1327652,244.670445 80.6616095,248.653978 86.9944399,247.31724 C93.3272704,245.981836 100.205735,240.985743 100.205735,240.985743 L103.372818,233.548303 L98.4581037,222.830384 L92.2360011,220.114218" id="Fill-143" fill="#A4EBBC"></path><polygon id="Fill-145" fill="#A4EBBC" points="124.990756 228.713366 103.153363 231.059996 103.153363 227.458006 124.990756 225.111377"></polygon><polygon id="Fill-147" fill="#A4EBBC" points="110.472338 168.723172 64.90184 173.619209 64.90184 168.029456 110.472338 163.133419"></polygon><polygon id="Fill-149" fill="#A4EBBC" points="89.2255386 179.277133 64.9014398 181.890577 64.9014398 178.888919 89.2255386 176.275476"></polygon><polygon id="Fill-151" fill="#A4EBBC" points="116.442435 236.342513 102.135868 237.878027 102.135868 234.276038 116.442435 232.740524"></polygon><path d="M161.130579,225.486251 C161.130579,231.456214 156.291907,236.81384 150.32061,237.456861 C144.35198,238.097215 139.511974,233.77883 139.511974,227.808867 C139.511974,221.838904 144.35198,216.47861 150.32061,215.838257 C156.291907,215.196569 161.130579,219.514954 161.130579,225.486251" id="Fill-153" fill="#DFF7E7"></path><path d="M149.448261,214.075016 L150.430137,226.089651 L134.053093,218.569498 C134.053093,218.569498 139.075867,242.158524 145.407363,240.82312 C151.740194,239.487716 162.87701,234.251491 162.87701,234.251491 L166.044093,226.814051 L161.130713,216.096132 L154.907276,213.379966" id="Fill-155" fill="#A4EBBC"></path><polygon id="Fill-157" fill="#A4EBBC" points="187.191104 222.08077 165.353711 224.426066 165.353711 220.824076 187.191104 218.477447"></polygon><polygon id="Fill-159" fill="#A4EBBC" points="179.114377 229.608394 164.80781 231.145243 164.80781 227.541919 179.114377 226.005071"></polygon><polygon id="Fill-161" fill="#A4EBBC" points="130.667757 213.254296 121.496026 214.240174 121.496026 203.977173 130.667757 202.99263"></polygon><polygon id="Fill-163" fill="#A4EBBC" points="117.276896 214.762863 108.105164 215.747406 108.105164 205.484406 117.276896 204.498528"></polygon><polygon id="Fill-165" fill="#A4EBBC" points="142.500425 211.982794 133.328693 212.968672 133.328693 202.705671 142.500425 201.721127"></polygon><polygon id="Fill-167" fill="#A4EBBC" points="154.332559 210.711159 145.160827 211.697036 145.160827 201.434036 154.332559 200.448158"></polygon><polygon id="Fill-169" fill="#A4EBBC" points="166.165226 209.44099 156.993495 210.425534 156.993495 200.162533 166.165226 199.176656"></polygon><line x1="65.1993376" y1="205.557246" x2="193.680954" y2="191.750955" id="Stroke-171" stroke="#B1EDC8" stroke-width="0.84046412"></line><polygon id="Fill-173" fill="#DFF7E7" points="93.8889138 197.451303 63.9016877 200.671748 63.9016877 187.704587 93.8889138 184.482808"></polygon><polygon id="Stroke-175" stroke="#B1EDC8" stroke-width="0.84046412" points="93.8889138 197.451303 63.9016877 200.671748 63.9016877 187.704587 93.8889138 184.482808"></polygon><polygon id="Fill-177" fill="#DFF7E7" points="130.409081 189.045594 97.8831195 192.540858 97.8831195 185.745105 130.409081 182.251176"></polygon><polygon id="Stroke-179" stroke="#B1EDC8" stroke-width="0.84046412" points="130.409081 189.045594 97.8831195 192.540858 97.8831195 185.745105 130.409081 182.251176"></polygon><polygon id="Fill-181" fill="#DFF7E7" points="166.830927 185.133301 134.304966 188.62723 134.304966 181.831477 166.830927 178.337548"></polygon><polygon id="Stroke-183" stroke="#B1EDC8" stroke-width="0.84046412" points="166.830927 185.133301 134.304966 188.62723 134.304966 181.831477 166.830927 178.337548"></polygon><path d="M346.528426,214.861984 C350.291838,236.455242 349.938309,271.700038 349.938309,271.700038" id="Stroke-185" stroke="#505863" stroke-width="1.26069618" stroke-linecap="round" stroke-linejoin="round"></path><path d="M304.276027,101.230168 C307.703253,112.885938 302.58576,138.548109 293.191239,153.469682 L295.158992,164.111559 C297.125411,174.752101 305.728829,182.939289 316.464091,184.284032 C321.242729,184.881695 326.437598,185.707484 331.321629,186.842778 C345.837645,190.215307 356.447504,202.695532 357.562786,217.555738 C359.182347,239.159668 360.592459,267.515327 360.592459,267.515327" id="Stroke-187" stroke="#505863" stroke-width="1.68092824" stroke-linejoin="round"></path><path d="M258.268087,170.793382 C239.166872,174.451402 234.317528,160.638441 231.274514,150.100622 C228.228832,139.564137 230.097864,129.949494 228.172801,121.016561 C226.294431,112.309086 227.140231,102.039415 229.694975,93.2398888 C233.186236,81.2079112 244.53517,73.4529621 263.940553,71.9307882 C266.662056,71.7160029 269.3382,71.8840957 271.940971,72.3683631" id="Stroke-189" stroke="#505863" stroke-width="1.68092824" stroke-linejoin="round"></path><path d="M246.71424,120.196375 C255.935332,126.587904 260.804688,144.892679 265.675377,150.266313 C270.25524,155.321104 289.18436,158.999136 294.783451,150.391716" id="Stroke-191" stroke="#505863" stroke-width="0.84046412" stroke-linecap="round" stroke-linejoin="round"></path><path d="M229.405215,94.7082997 C235.381849,95.09518 236.346381,116.109451 237.117474,119.001715" id="Stroke-193" stroke="#505863" stroke-width="0.84046412" stroke-linecap="round" stroke-linejoin="round"></path><path d="M272.356,72.963225 C271.720983,86.7428343 278.595446,98.0504119 294.217406,100.567802 C309.045594,102.958456 321.809976,96.0733201 323.731037,81.363864 C325.42664,68.3766922 316.073475,55.9778453 301.869631,53.7592869 C286.690582,51.3886444 272.956331,59.933363 272.356,72.963225 Z" id="Stroke-195" stroke="#505863" stroke-width="1.68092824" stroke-linecap="round" stroke-linejoin="round"></path><path d="M259.713552,157.719762 L258.363473,180.277553 C258.163363,183.619398 255.970151,186.511662 252.805737,187.606933 L232.784014,194.532091 C218.041206,201.289156 207.542075,214.840639 204.683163,230.805455 L191.422507,305.436001" id="Stroke-197" stroke="#505863" stroke-width="1.68092824" stroke-linecap="round" stroke-linejoin="round"></path><path d="M253.181411,234.927731 L227.263099,316.723567 C220.764844,337.23356 193.408404,341.083686 181.499161,323.165791 L157.927477,287.69954 L152.329719,277.297796" id="Stroke-199" stroke="#505863" stroke-width="1.68092824" stroke-linecap="round" stroke-linejoin="round"></path><path d="M193.754595,290.350203 L168.412601,263.007104 C168.412601,263.007104 169.658622,260.829902 168.412601,258.185775 C167.169247,255.541648 162.03708,251.965006 162.03708,251.965006 L159.236867,251.498082 C159.236867,251.498082 156.437988,247.765354 154.260786,246.832839 C152.083583,245.900324 147.262254,246.209828 146.329739,246.676753 C142.751763,246.209828 140.107637,245.900324 138.086521,246.676753 C136.198811,247.402487 132.009832,251.109867 131.461529,253.117643 C130.395607,253.915417 129.649862,254.861272 129.377711,255.541648 C129.093554,256.248705 128.878769,257.111849 128.724017,257.848255 C126.967047,258.651365 125.610298,259.929404 124.711134,260.829902 C123.311695,262.229341 123.311695,265.029554 125.021973,265.029554 C126.732251,265.029554 131.398828,263.784867 131.398828,263.784867 L136.374909,265.807317 C136.374909,265.807317 140.575895,272.026751 150.528058,274.516126" id="Stroke-201" stroke="#505863" stroke-width="1.68092824" stroke-linecap="round" stroke-linejoin="round"></path><path d="M339.347394,189.06774 C339.347394,189.06774 332.605004,211.154603 296.803901,214.873991 C261.000129,218.594712 234.872367,208.857335 227.401575,198.66504" id="Stroke-203" stroke="#505863" stroke-width="1.68092824" stroke-linejoin="round"></path><path d="M171.685875,265.286896 C159.541835,264.577171 150.849035,272.521558 151.740194,277.824486" id="Stroke-205" stroke="#00AF41" stroke-width="3.36185648" stroke-linecap="round" stroke-linejoin="round"></path><path d="M156.847547,266.762911 C157.070337,269.068184 160.17205,270.651726 163.776707,270.303533 C167.381364,269.958009 170.122878,267.807488 169.900089,265.503549 C169.678633,263.19961 166.575586,261.614735 162.970929,261.962927 C159.367606,262.309786 156.624758,264.458972 156.847547,266.762911" id="Fill-207" fill="#DFF7E7"></path><path d="M156.847547,266.762911 C157.070337,269.068184 160.17205,270.651726 163.776707,270.303533 C167.381364,269.958009 170.122878,267.807488 169.900089,265.503549 C169.678633,263.19961 166.575586,261.614735 162.970929,261.962927 C159.367606,262.309786 156.624758,264.458972 156.847547,266.762911 Z" id="Stroke-209" stroke="#00AF41" stroke-width="1.68092824" stroke-linecap="round" stroke-linejoin="round"></path><path d="M124.915247,260.625522 C127.51535,258.02542 129.827293,257.254327 131.174704,256.771394 C132.523449,256.291129 135.60515,256.580622 138.205253,257.639873" id="Stroke-211" stroke="#505863" stroke-width="1.68092824" stroke-linecap="round" stroke-linejoin="round"></path><path d="M131.367343,253.209961 C134.738538,250.416418 138.591333,250.224312 144.177084,252.824414" id="Stroke-213" stroke="#505863" stroke-width="1.68092824" stroke-linecap="round" stroke-linejoin="round"></path><path d="M139.939144,246.371518 C144.273537,246.563624 148.70265,248.779514 150.244835,249.741378" id="Stroke-215" stroke="#505863" stroke-width="1.68092824" stroke-linecap="round" stroke-linejoin="round"></path><path d="M155.059493,247.527089 C156.889837,249.06794 161.224231,254.943184 161.224231,254.943184" id="Stroke-217" stroke="#505863" stroke-width="1.68092824" stroke-linecap="round" stroke-linejoin="round"></path><path d="M272.280492,265.526629 L368.014691,255.715878 C373.875261,255.114212 379.787859,256.210818 385.045429,258.870953 C385.045429,258.870953 389.533241,262.063383 392.034622,263.948424 C397.859172,267.534404 401.761327,274.562285 401.761327,281.997057 L401.761327,326.47762 L401.761327,322.808928 L248.381961,337.483698 L248.381961,292.067952 C248.381961,278.408409 258.695656,266.95275 272.280492,265.526629" id="Fill-219" fill="#DFF7E7"></path><line x1="401.759459" y1="327.091826" x2="401.759459" y2="329.578533" id="Stroke-221" stroke="#00AF41" stroke-width="1.68092824" stroke-linecap="round"></line><path d="M248.382495,320.781141 L248.382495,292.067952 C248.382495,278.408409 258.69619,266.954084 272.282359,265.526629 L368.013891,255.715878 C373.875794,255.114212 379.788393,256.210818 385.045963,258.870953 C385.045963,258.870953 389.531106,262.063383 392.035156,263.948424 C397.858371,267.534404 401.759192,274.562285 401.759192,281.997057 L401.759192,319.447071" id="Stroke-223" stroke="#00AF41" stroke-width="1.68092824" stroke-linecap="round"></path><line x1="248.382495" y1="331.931832" x2="248.382495" y2="326.484824" id="Stroke-225" stroke="#00AF41" stroke-width="1.68092824" stroke-linecap="round"></line><line x1="248.382495" y1="337.484365" x2="248.382495" y2="337.249569" id="Stroke-227" stroke="#00AF41" stroke-width="1.68092824" stroke-linecap="round"></line><path d="M260.982519,327.637728 L260.982519,299.2167 C260.982519,284.912801 271.78315,272.916843 286.008339,271.421351 L379.14377,261.631945 C391.233113,260.36191 401.758925,269.840478 401.758925,281.99519" id="Stroke-229" stroke="#00AF41" stroke-width="0.84046412" stroke-linecap="round"></path><line x1="260.982519" y1="336.224469" x2="260.861119" y2="331.931432" id="Stroke-231" stroke="#00AF41" stroke-width="0.84046412" stroke-linecap="round"></line><path d="M228.01965,316.681144 C228.01965,317.10271 230.522365,322.645771 231.921805,332.328451" id="Stroke-233" stroke="#505863" stroke-width="1.68092824" stroke-linecap="round" stroke-linejoin="round"></path><path d="M310.013462,331.81977 C309.909404,331.81977 309.810683,331.782416 309.731973,331.711711 C309.643924,331.631666 309.59323,331.51827 309.59323,331.400872 L309.59323,299.576632 C309.59323,299.361846 309.755986,299.181747 309.968103,299.160402 C309.968103,299.160402 366.740788,293.193107 366.755462,293.193107 C366.85952,293.193107 366.959575,293.230461 367.036951,293.301166 C367.126334,293.38121 367.177029,293.493272 367.177029,293.613339 L367.177029,325.434911 C367.177029,325.649696 367.014272,325.83113 366.799487,325.852475 C366.799487,325.852475 310.028137,331.81977 310.013462,331.81977" id="Fill-235" fill="#A4EBBC"></path><path d="M366.755729,293.613739 L366.755729,325.435311 L310.012395,331.399938 L310.012395,299.577032 L366.755729,293.613739 M366.755729,292.773275 C366.727714,292.773275 366.698364,292.773275 366.669015,292.777277 L309.924346,298.741904 C309.497444,298.785928 309.17193,299.146127 309.17193,299.577032 L309.17193,331.399938 C309.17193,331.637403 309.27332,331.864195 309.450751,332.024283 C309.605503,332.163027 309.806948,332.240403 310.012395,332.240403 C310.041744,332.240403 310.072428,332.237734 310.100443,332.235066 L366.842444,326.271773 C367.272014,326.226415 367.596193,325.866216 367.596193,325.435311 L367.596193,293.613739 C367.596193,293.373606 367.496138,293.146814 367.318707,292.98806 C367.162621,292.849317 366.96251,292.773275 366.755729,292.773275" id="Fill-237" fill="#00AF41"></path><path d="M180.725934,275.992008 C172.689496,274.28173 165.106642,280.411782 163.589804,286.97007 C162.0743,293.531027 164.34889,297.238407 166.926313,301.231279" id="Stroke-239" stroke="#505863" stroke-width="1.26069618" stroke-linejoin="round"></path><path d="M308.949141,56.2828137 C319.157445,57.7676337 333.450671,74.1019871 328.996211,87.8389063" id="Stroke-241" stroke="#505863" stroke-width="1.68092824" stroke-linecap="round" stroke-linejoin="round"></path><path d="M295.974509,53.3189103 C306.061413,52.3877295 312.661057,53.6844455 321.015004,57.9534696" id="Stroke-243" stroke="#505863" stroke-width="1.68092824" stroke-linecap="round" stroke-linejoin="round"></path><path d="M274.05227,86.9103935 C276.093397,92.6642376 284.260574,103.246081 294.842417,104.17326" id="Stroke-245" stroke="#505863" stroke-width="0.84046412" stroke-linecap="round" stroke-linejoin="round"></path><path d="M274.05227,64.635693 C270.89586,70.5749728 270.339553,83.3833792 270.710425,86.9106603" id="Stroke-247" stroke="#505863" stroke-width="0.84046412" stroke-linecap="round" stroke-linejoin="round"></path><path d="M220.940274,120.377408 C221.292468,120.377408 239.547883,116.355187 239.547883,116.355187" id="Stroke-249" stroke="#65BF80" stroke-width="1.68092824" stroke-linecap="round" stroke-linejoin="round"></path><path d="M237.117207,119.965714 C240.395017,110.90471 247.529624,115.723371 247.72173,124.014616 C247.913836,132.305862 244.63736,138.089055 241.745096,139.053588 C239.934763,139.656588 238.467286,136.740311 238.467286,136.740311" id="Stroke-251" stroke="#505863" stroke-width="1.68092824" stroke-linecap="round" stroke-linejoin="round"></path><line x1="238.473423" y1="136.545937" x2="238.473423" y2="149.741223" id="Stroke-253" stroke="#00AF41" stroke-width="1.68092824" stroke-linecap="round" stroke-linejoin="round"></line><line x1="401.759459" y1="336.169772" x2="401.759459" y2="336.882166" id="Stroke-255" stroke="#00AF41" stroke-width="1.68092824" stroke-linecap="round"></line></g></g></svg> 